<svg id="Layer_1" data-name="Layer 1" xmlns="http://www.w3.org/2000/svg" xmlns:xlink="http://www.w3.org/1999/xlink" viewBox="0 0 1750.65 1435.11"><defs><style>.cls-1{fill-rule:evenodd;fill:url(#linear-gradient);}</style><linearGradient id="linear-gradient" x1="-7496.72" y1="-19941.35" x2="36268.42" y2="20074.14" gradientTransform="matrix(0.03, 0, 0, -0.03, 1161.38, 1158.52)" gradientUnits="userSpaceOnUse"><stop offset="0" stop-color="#de9048"/><stop offset="0.14" stop-color="#9d6633"/><stop offset="0.24" stop-color="#9d6633"/><stop offset="0.34" stop-color="#e19249"/><stop offset="0.54" stop-color="#9d6633"/><stop offset="0.72" stop-color="#9e6733"/><stop offset="1" stop-color="#ed9a4d"/></linearGradient></defs><path class="cls-1" d="M1500,713.62a444.41,444.41,0,0,0-50.41,2.87,180.52,180.52,0,0,1,3.89,20.87c-24.2-22.05-54.81-29.76-86.89-23.16,16.33,8.6,22,16,24.68,21.31-26-2.87-54.82,10.22-80.37,27.28-9-17.54-23.81-32.44-46.66-40.19-6.07-2.05-12.07-3.7-17.71-5.29-10.53-3-2.41-22.1,14.18-19-8.81-14.28-25.32-12.7-36.66-3.34-.79-16.65-15.41-28.44-15.41-28.44s.09,16.69-6.3,30.85c-7.89-5.74-19.28-11-32.57-8.22,16.38,14.87,13.74,28.77,3.42,36.95-50.6,40.06-52.28,103.76-6.4,134.52-30.38-72.56,62.82-109.39,92.9-43.92-2.32,9.56-9.87,19.61-24.2,27.45-1-11.78-5.73-23.64-14-31-1,10.76-2,23.77-7,33.48-4.06-8.64-17.69-26.86-39.46-29,30.31,56.1-79.65,136.07-105.53,117.43,1.75,23.89,14.55,38.58,34.61,46.16,15.9-19.39,41.8-41.09,79.8-45,0,0-31.68,7-57.86,43.36-44.9,62.27-1.81,147.3-55.52,175.43,18.25,12.56,41.37,13.38,61.67,5.49,4.5,37.95,21.13,81.16,42.18,107.15-15.76-97.62,8.56-190,84.86-244.68-83,79.52-81.23,272.82,7.88,357.35-10.56-57.6-1.89-145.46,47.95-192.89-57.94,124.3-3.68,208.09,113.87,255.94,32.25,13.13,30.25,40-10.2,29.24-22.21-5.88-53.71-22.1-83.78-53.43,18,85.26,114.3,120.92,165,148.86,50.7-27.94,147-63.61,165-148.86-30.07,31.33-61.58,47.54-83.79,53.43-40.44,10.73-42.45-16.11-10.19-29.24,117.55-47.85,171.8-131.64,113.86-255.94,49.84,47.43,58.52,135.29,47.95,192.89,89.12-84.53,90.89-277.83,7.89-357.35,76.3,54.7,100.62,147.06,84.86,244.68,21-26,37.67-69.2,42.18-107.15,20.3,7.89,43.42,7.07,61.67-5.49-53.72-28.13-10.62-113.16-55.53-175.43-26.18-36.31-57.86-43.36-57.86-43.36,38,3.9,63.91,25.6,79.81,45,20.06-7.58,32.86-22.28,34.6-46.16-25.87,18.63-135.84-61.33-105.53-117.43-21.76,2.09-35.4,20.31-39.45,29-5-9.71-6-22.72-7-33.48-8.23,7.32-13,19.18-14,31-14.32-7.84-21.88-17.89-24.19-27.45,30.07-65.47,123.28-28.64,92.9,43.92,45.87-30.76,44.2-94.46-6.4-134.52-10.33-8.18-13-22.08,3.42-36.95-13.3-2.81-24.69,2.48-32.57,8.22-6.4-14.16-6.31-30.85-6.31-30.85S1776.77,678.36,1776,695c-11.34-9.36-27.84-10.94-36.66,3.34,16.59-3.14,24.72,16,14.19,19-5.65,1.6-11.65,3.24-17.71,5.29-22.86,7.75-37.69,22.65-46.67,40.19-25.54-17.06-54.35-30.15-80.37-27.28,2.71-5.29,8.35-12.71,24.69-21.31-32.08-6.6-62.7,1.11-86.89,23.16a180.45,180.45,0,0,1,3.88-20.87,444.24,444.24,0,0,0-50.4-2.87Zm0-184.91s-19.84,8.12-29.48,33.83,9.1,53,9.1,53c-.26,38.58-45.16,62.49-72.28,39.76-15.64-13.11-8.86-39.47,10.52-35.56,4.58-15.51-9.52-24-21.34-21-2-12.4-8.53-23.69-19.88-30.15-6.68,10.59-10.58,22-9.83,34.14-17.57-1.06-23.41,16-14.52,24.58,22.47-6.93,30.72,20.34,15.2,32.3s-53,12.07-61.41-17.15c23.74-26.33-13.6-58.76-37.77-69.64l43.58,170.34c18.76-10,34.61-16.7,52.58-20.48a90.65,90.65,0,0,0-20.36-15.57c32.25-9.8,59.48-6,76.25.3,50.37-8.56,108.91-8.56,159.29,0,16.77-6.28,44-10.1,76.25-.3a90.42,90.42,0,0,0-20.36,15.57c18,3.78,33.82,10.48,52.58,20.48l43.58-170.34c-24.18,10.88-61.51,43.31-37.77,69.64-8.38,29.22-45.86,29.15-61.41,17.15s-7.27-39.23,15.2-32.3c8.89-8.59,3-25.63-14.52-24.58.76-12.1-3.15-23.55-9.83-34.14-11.35,6.46-17.85,17.75-19.88,30.15-11.82-3-25.92,5.47-21.34,21,19.38-3.92,26.16,22.45,10.52,35.56-27.12,22.73-72-1.18-72.28-39.76,0,0,18.74-27.31,9.1-53S1500,528.71,1500,528.71Zm-34.18,840.71c7.44-14.39,8.56-31.31,8-38.8,12,9.46,22.15,30.25,26.2,46.79,4-16.54,14.2-37.33,26.18-46.79-.57,7.49.55,24.41,8,38.8,4.26-20.75,23.24-33.84,36.5-49.31,19.78-23.06,20.67-47.66-9-60.62-30.75-13.45-92.69-13.45-123.44,0-29.63,13-28.75,37.56-9,60.62,13.26,15.47,32.24,28.56,36.5,49.31Zm-5.46-572.67c5.38,11,11.8,42.61,6.88,65.35-14.61-48.37-60-97.51-117.31-94.57,40.09,8.5,72.75,39.56,73.23,88.69-19.53-32.07-52-37.13-74.05-5.6-8.51,12.2-14,27.38-21.36,41.07-18.28,34.14-58.44,47-85.1,26.15,16.28,26.79,52.77,31.42,83.16,5.9,29-24.31,26.56-59.64,55.2-67.14-21.7,19.52-9.75,58.09-48.62,81.78-19.94,12.16-40.84,22.48-33.26,55.69,11.43-26,41.26-45.87,79.23-36.81,10.72,2.55,18.64,6.92,29.49,8.43,23.07,3.22,37.77-9.17,36.78-31.5,4,12.76,3.73,23.33,1.22,32.66-3.73,13.91-10.28,21.92-15.09,34.31-5.41,13.92-7.56,30.89-3.18,45.23-11.49-14-11.37-35.55-7.67-52.35-24,9.26-45.08,12.85-63.06-10.15-68.89,1.26-63.87,83.05-30.95,98.62-14.93,1.81-34.34-5.55-38-27.55-4,51.88,56.77,76.54,88.47,47.54,17.87-24.31,44.31-43.36,72.6-49-44.68,21-68.64,65.28-70.63,104.82,12.41,8.76,30.64,10.05,49.77,7.94-14.15,9.56-34.69,11.8-49.41,7.19a88.23,88.23,0,0,0,2.31,13.21c17.31,8,46.09,3.71,64.93-7.23-8.61,15.94-37.54,25.94-58.41,23.85a64.69,64.69,0,0,0,12.62,16.33c16.58-2,28.43-6.59,44.88-19.78a70,70,0,0,1-30.78,29.69c14.09,7.21,31.57,9.35,51,4.3,32.68-8.5,35.07-43.19,4.4-55.49-31-12.44-52.62-31.31-24.36-62.48-3.84,20.21,7.61,24,19,19a87.57,87.57,0,0,1,71.32,0c11.44,5,22.89,1.2,19-19,28.25,31.17,6.62,50-24.36,62.48-30.67,12.3-28.28,47,4.4,55.49,19.41,5.05,36.88,2.91,51-4.3a70,70,0,0,1-30.78-29.69c16.45,13.19,28.29,17.79,44.88,19.78a64.87,64.87,0,0,0,12.62-16.33c-20.87,2.1-49.79-7.91-58.41-23.85,18.83,10.94,47.61,15.2,64.93,7.23a88.23,88.23,0,0,0,2.31-13.21c-14.72,4.61-35.27,2.37-49.41-7.19,19.12,2.11,37.36.82,49.76-7.94-2-39.54-25.94-83.77-70.62-104.82,28.29,5.59,54.73,24.65,72.61,49,31.69,29,92.47,4.34,88.46-47.54-3.65,22-23,29.36-38,27.55,32.92-15.57,37.94-97.36-30.95-98.62-18,23-39,19.41-63.06,10.15,3.7,16.8,3.82,38.35-7.67,52.35,4.38-14.34,2.23-31.31-3.18-45.23-4.81-12.39-11.36-20.4-15.09-34.31-2.51-9.33-2.83-19.9,1.21-32.66-1,22.33,13.72,34.72,36.79,31.5,10.86-1.51,18.77-5.88,29.49-8.43,38-9.06,67.8,10.84,79.22,36.81,7.58-33.21-13.31-43.53-33.25-55.69-38.86-23.69-26.92-62.26-48.63-81.78,28.65,7.5,26.26,42.83,55.21,67.14,30.39,25.52,66.87,20.89,83.16-5.9-26.65,20.87-66.82,8-85.1-26.15-7.32-13.69-12.84-28.87-21.36-41.07-22-31.53-54.52-26.46-74.06,5.6.49-49.13,33.15-80.19,73.25-88.69-57.28-2.95-102.71,46.19-117.32,94.57-4.92-22.74,1.5-54.34,6.87-65.35-13.8,9.62-29,31.07-39.63,60.21C1489.33,827.82,1474.17,806.37,1460.36,796.75Zm-367.15,751.64c-81.5-16.84-106-57.43-176.82-101.74-68.65-43-147.24-27-204.23,30.73,24.27,18.22,70.35,28.78,119.37,22.52-16,14.73-29.11,36.37-28.17,66.25,122.77-108.3,154.61,19.76,289.85-17.75Zm704.55,14.68c87.16-21.19,213.64,30.49,232.55,142.67-42.83-9.52-67.31-39.06-93.48-62.93,7.59,26.37,3,60.08,3,60.08-49-50.75-33.19-116-142-139.82Zm151.4-424.92c60.95-71.84,158.64-14.37,146.39,85.38,42.19-126.38-35.35-300.34-152.13-198.93.87-107.14,112.13-126,162.59-51.38,34.15-68.16,114.19-95.5,179.32-14.08-57.11-5.26-91.2,32-99.17,80.9-3.33,20.36-3.92,37.65-4.07,54.61-2.07,232.56-133.41,432.53-372.89,446.94,113.26-38,198.3-120.68,224.46-243.19C2048.14,1230.57,2047.35,1115.12,1949.16,1138.15Zm-177.33,397.22c90.31-44.31,166.65-171.77,60-231.13,21-17.42,40.86-17.94,57.51-6.75,1.84-18.82,7.68-45.91,16.91-62.59,14.2,14.27,26.36,28.79,31.94,48.64,8.12-43.78,47-63.46,79.78-50.65-42.31,14-43.71,75.95-58.46,135.61-23.52,95.14-99.11,148.67-187.65,166.87ZM1500,1742.24c-32.36,61.3-87.72,114.62-129.41,111.61,32,31.63,73,27.41,105.61-22-1.53,44.43-61,65.52-13.39,97,25.16,16.63,37.19,34.93,37.19,34.93s12-18.29,37.19-34.93c47.62-31.49-11.87-52.57-13.39-97,32.59,49.37,73.63,53.59,105.61,22C1587.71,1856.86,1532.36,1803.54,1500,1742.24ZM891.09,943c54.84-66.09,83.8-39.19,134.49-86.13,47.92-44.37,59.37-108.48,26.83-189.17-18.8,13.19-35,64.68-36.06,111.15-3.16-19.8-20-42.72-44.14-44C1022.84,841.12,918.73,840.33,891.09,943Zm1217.82,0c-54.84-66.09-83.79-39.2-134.49-86.13-47.92-44.36-59.37-108.48-26.83-189.17,18.8,13.19,35,64.68,36.06,111.15,3.16-19.79,20-42.72,44.14-44C1977.16,841.12,2081.27,840.33,2108.91,943Zm-29.3,487.7c62.49-55.39,65.26-102.63,106.13-176.27,39.66-71.41,114.48-97.1,189.59-76-12.64,27.87-47.52,60.06-92.52,79.29,20.38,4.65,41.48,16.68,54.18,42.84-154.57-31.57-124.08,94.59-257.38,130.18Zm-359,193c78.15,16.4,27.08,120.2-34.17,61.18-3.58,57.53,66.95,76.39,109.8,41.45,69.46-56.58,38.82-154.3-42.47-178.09,20.42-39.78-.33-76.2-37-92.15,20.56,48.74-7.09,88.52-46.85,110.32-46.87,25.71-90.25,56.5-104.9,119.86-21-29-54.87-20.25-61.79,5.1,9.64-2.45,19.42.69,26.77,6.51,34.37,27.17-12.19,98.12,84.5,139.93-27.34-35.35-38.72-104.81-.43-134,33-25.16,53.35,2.35,53.35,2.35,6.69-35.6-15.67-45.36-37.1-45.93,27.15-28.35,53.84-44.19,90.32-36.54Zm186.21-75.34c81.49-16.84,106-57.43,176.82-101.74,68.65-43,147.23-27,204.22,30.73-24.26,18.22-70.35,28.78-119.37,22.52,16,14.73,29.11,36.37,28.17,66.25-122.76-108.3-154.6,19.76-289.84-17.75Zm-704.55,14.68c-87.16-21.19-213.65,30.49-232.56,142.67,42.84-9.52,67.32-39.06,93.49-62.93-7.6,26.37-3,60.08-3,60.08C1109.23,1652.14,1093.4,1586.92,1202.25,1563.07Zm25.92-27.7c-90.3-44.31-166.65-171.77-60-231.13-21-17.42-40.86-17.94-57.51-6.75-1.84-18.82-7.68-45.91-16.91-62.59-14.19,14.27-26.36,28.79-31.94,48.64-8.12-43.78-47-63.46-79.78-50.65,42.32,14,43.72,75.95,58.46,135.61,23.52,95.14,99.12,148.67,187.65,166.87Zm-177.33-397.22c-60.95-71.84-158.64-14.37-146.39,85.38-42.19-126.38,35.35-300.34,152.14-198.93-.88-107.14-112.13-126-162.6-51.38-34.15-68.16-114.19-95.5-179.32-14.08,57.11-5.26,91.2,32,99.17,80.9,3.33,20.36,3.92,37.65,4.07,54.61,2.08,232.56,133.41,432.53,372.89,446.94-113.26-38-198.3-120.68-224.46-243.19C951.86,1230.57,952.65,1115.12,1050.84,1138.15Zm228.58,485.58c-78.15,16.4-27.09,120.2,34.17,61.18,3.58,57.53-66.95,76.39-109.81,41.45-69.45-56.58-38.82-154.3,42.47-178.09-20.41-39.78.33-76.2,37-92.15-20.56,48.74,7.08,88.52,46.84,110.32,46.88,25.71,90.25,56.5,104.9,119.86,21-29,54.87-20.25,61.8,5.1-9.64-2.45-19.43.69-26.78,6.51-34.37,27.17,12.19,98.12-84.5,139.93,27.35-35.35,38.73-104.81.43-134-33-25.16-53.35,2.35-53.35,2.35-6.68-35.6,15.67-45.36,37.11-45.93-27.15-28.35-53.85-44.19-90.32-36.54Zm-359-193c-62.5-55.39-65.27-102.63-106.14-176.27-39.65-71.41-114.47-97.1-189.58-76,12.63,27.87,47.51,60.06,92.52,79.29-20.39,4.65-41.49,16.68-54.18,42.84C817.58,1269,787.1,1395.11,920.4,1430.7Z" transform="translate(-624.68 -528.71)"/></svg>